<svg xmlns="http://www.w3.org/2000/svg" viewBox="0 0 24 24" width="48" height="48">
  <defs>
    <linearGradient id="dropGrad" x1="0%" y1="0%" x2="100%" y2="100%">
      <stop offset="0%" stop-color="#A5C49A" />
      <stop offset="100%" stop-color="#7D9B76" />
    </linearGradient>
    <linearGradient id="sparkleGrad" x1="0%" y1="0%" x2="100%" y2="100%">
      <stop offset="0%" stop-color="#FFF" />
      <stop offset="100%" stop-color="#C9A84C" />
    </linearGradient>
  </defs>
  <!-- Beautiful organic droplet -->
  <path fill="url(#dropGrad)" d="M12,2.69C12,2.69 4,11.5 4,15.5A8,8 0 0,0 12,23.5A8,8 0 0,0 20,15.5C20,11.5 12,2.69 12,2.69Z" />
  <!-- Gold glowing sparkle (four-point star) -->
  <path fill="url(#sparkleGrad)" d="M18.5,4L19.25,5.75L21,6.5L19.25,7.25L18.5,9L17.75,7.25L16,6.5L17.75,5.75L18.5,4Z" />
  <!-- Small white sparkle inside droplet -->
  <path fill="#FFF" opacity="0.8" d="M9.5,10L9.88,10.88L10.75,11.25L9.88,11.63L9.5,12.5L9.13,11.63L8.25,11.25L9.13,10.88L9.5,10Z" />
</svg>